<?xml version="1.0"?>
<svg xmlns="http://www.w3.org/2000/svg" viewBox="0 0 50 50">
    <path style="fill:white;line-height:normal;text-indent:0;text-align:start;text-decoration-line:none;text-decoration-style:solid;text-decoration-color:#C1C1C1;text-transform:none;block-progression:tb;isolation:auto;mix-blend-mode:normal" d="M 44.990234 7.9863281 A 1.0001 1.0001 0 0 0 44.292969 8.2929688 L 25 27.585938 L 5.7070312 8.2929688 A 1.0001 1.0001 0 0 0 4.9902344 7.9902344 A 1.0001 1.0001 0 0 0 4.2929688 9.7070312 L 25 30.414062 L 45.707031 9.7070312 A 1.0001 1.0001 0 0 0 44.990234 7.9863281 z M 44.990234 20.986328 A 1.0001 1.0001 0 0 0 44.292969 21.292969 L 25 40.585938 L 5.7070312 21.292969 A 1.0001 1.0001 0 0 0 4.9902344 20.990234 A 1.0001 1.0001 0 0 0 4.2929688 22.707031 L 25 43.414062 L 45.707031 22.707031 A 1.0001 1.0001 0 0 0 44.990234 20.986328 z" font-weight="400" font-family="sans-serif" white-space="normal" overflow="visible"/>
</svg>
